<?xml version="1.0" standalone="no"?>
<!DOCTYPE svg PUBLIC "-//W3C//DTD SVG 1.1//EN" "http://www.w3.org/Graphics/SVG/1.1/DTD/svg11.dtd">
<svg xmlns="http://www.w3.org/2000/svg">
<metadata>Generated by Fontastic.me</metadata>
<defs>
<font id="chess-annotations" horiz-adv-x="512">
<font-face font-family="chess-annotations" units-per-em="512" ascent="480" descent="-32"/>
<missing-glyph horiz-adv-x="512" />

<glyph unicode="&#97;" d="M432 156c-46 0-93 0-140 0 0-47 0-93 0-139-24 0-48 0-72 0 0 46 0 92 0 139-47 0-94 0-140 0 0 23 0 47 0 70 46 0 93 0 140 0 0 47 0 93 0 139 24 0 48 0 72 0 0-46 0-92 0-139 47 0 94 0 140 0 0-23 0-47 0-70z m0 271c-117 0-235 0-352 0 0 26 0 51 0 76 117 0 235 0 352 0 0-25 0-50 0-76z"/>
<glyph unicode="&#98;" d="M431 293c-46 0-93 0-140 0 0-46 0-93 0-139-24 0-48 0-72 0 0 46 0 93 0 139-47 0-94 0-140 0 0 23 0 47 0 70 46 0 93 0 140 0 0 47 0 93 0 139 24 0 48 0 72 0 0-46 0-92 0-139 47 0 94 0 140 0 0-23 0-47 0-70z m0-285c-117 0-235 0-352 0 0 26 0 51 0 76 117 0 235 0 352 0 0-25 0-50 0-76z"/>
<glyph unicode="&#99;" d="M363 356c1-38-12-77-37-100-15-16-33-27-51-36 0-21 0-42 0-63-25 0-50 0-75 0 0 31 0 62 0 93 25 8 52 20 69 47 13 21 16 56 0 76-19 19-47 17-69 9-16-5-30-15-44-25-6-1-9 1-7 10 0 25 0 49 0 74 45 21 94 31 142 18 33-9 66-40 71-85 1-6 1-12 1-18z m-82-309c-29 0-58 0-86 0 0 24 0 49 0 73 28 0 57 0 86 0 0-24 0-49 0-73z"/>
<glyph unicode="&#100;" d="M228 356c2-43-16-86-46-109-13-11-27-20-42-27 0-21 0-42 0-63-25 0-50 0-75 0 0 31 0 62 0 93 30 9 64 26 77 65 8 26 1 62-23 68-34 14-69-4-98-26-10-4-7 9-7 18 0 22 0 44 0 66 49 22 104 34 154 13 33-13 62-51 60-98z m-82-309c-29 0-58 0-86 0 0 24 0 49 0 73 28 0 57 0 86 0 0-24 0-49 0-73z m352 309c2-43-16-86-46-109-13-11-27-20-42-27 0-21 0-42 0-63-25 0-50 0-75 0 0 31 0 62 0 93 30 9 64 26 77 65 8 26 1 62-23 68-33 14-69-4-98-26-10-4-7 9-7 18 0 22 0 44 0 66 49 22 104 34 155 13 32-13 61-51 59-98z m-82-309c-29 0-57 0-86 0 0 24 0 49 0 73 29 0 57 0 86 0 0-24 0-49 0-73z"/>
<glyph unicode="&#101;" d="M197 473c-5-103-9-206-14-309-31 0-63 0-95 0-4 103-9 206-13 309 41 0 81 0 122 0z m-2-434c-40 0-79 0-118 0 0 26 0 51 0 77 39 0 78 0 118 0 0-26 0-51 0-77z m242 434c-4-103-9-206-13-309-32 0-64 0-95 0-5 103-9 206-14 309 41 0 81 0 122 0z m-2-434c-39 0-78 0-118 0 0 26 0 51 0 77 40 0 79 0 118 0 0-26 0-51 0-77z"/>
<glyph unicode="&#102;" d="M285 356c1-40-14-81-41-104-14-14-31-24-47-32 0-21 0-42 0-63-25 0-51 0-76 0 0 31 0 62 0 93 30 9 62 25 76 61 9 25 5 61-17 70-34 17-72 0-101-24-9-3-10 3-9 13 0 24 0 47 0 71 48 22 101 33 150 15 33-11 64-47 65-94l0-3z m-82-309c-29 0-58 0-87 0 0 24 0 49 0 73 29 0 58 0 87 0 0-24 0-49 0-73z m239 410c-4-98-7-195-10-292-23 0-47 0-70 0-3 97-6 194-10 292 30 0 60 0 90 0z m-2-410c-29 0-57 0-86 0 0 24 0 49 0 73 29 0 57 0 86 0 0-24 0-49 0-73z"/>
<glyph unicode="&#103;" d="M317 473c-5-103-9-206-13-309-32 0-64 0-96 0-4 103-8 206-13 309 41 0 81 0 122 0z m-2-434c-39 0-79 0-118 0 0 26 0 51 0 77 39 0 79 0 118 0 0-26 0-51 0-77z"/>
<glyph unicode="&#104;" d="M156 457c-3-98-7-195-10-292-23 0-46 0-70 0-3 97-6 194-9 292 29 0 59 0 89 0z m-2-410c-28 0-57 0-86 0 0 24 0 49 0 73 29 0 58 0 86 0 0-24 0-49 0-73z m291 309c2-40-13-81-40-104-15-14-31-24-48-32 0-21 0-42 0-63-25 0-50 0-75 0 0 31 0 62 0 93 29 9 62 25 76 61 9 25 5 61-17 70-35 17-72 0-102-24-8-3-9 4-8 13 0 24 0 47 0 71 47 22 100 33 150 15 33-11 64-47 64-94l0-3z m-82-309c-29 0-57 0-86 0 0 24 0 49 0 73 29 0 57 0 86 0 0-24 0-49 0-73z"/>
<glyph unicode="&#105;" d="M400 117c-38 0-76 0-115 0 0-38 0-76 0-114-19 0-39 0-58 0 0 38 0 76 0 114-39 0-77 0-115 0 0 19 0 38 0 57 38 0 76 0 115 0 0 38 0 76 0 114 19 0 39 0 58 0 0-38 0-76 0-114 39 0 77 0 115 0 0-19 0-38 0-57z m3 329c-98 0-196 0-294 0 0 19 0 39 0 58 98 0 196 0 294 0 0-19 0-39 0-58z m0-113c-98 0-196 0-294 0 0 19 0 38 0 58 98 0 196 0 294 0 0-20 0-39 0-58z"/>
<glyph unicode="&#106;" d="M400 330c-38 0-76 0-115 0 0-38 0-76 0-114-19 0-39 0-58 0 0 38 0 76 0 114-39 0-77 0-115 0 0 19 0 38 0 58 38 0 76 0 115 0 0 37 0 75 0 113 19 0 39 0 58 0 0-38 0-76 0-113 39 0 77 0 115 0 0-20 0-39 0-58z m3-204c-98 0-196 0-294 0 0 19 0 39 0 58 98 0 196 0 294 0 0-19 0-39 0-58z m0-113c-98 0-196 0-294 0 0 19 0 38 0 58 98 0 196 0 294 0 0-20 0-39 0-58z"/>
<glyph unicode="&#107;" d="M351 432c52 1 96-40 111-88 18-53 16-111 4-165-10-42-37-84-80-97-42-14-93 1-115 41-8 9-13 34-20 36-13-21-26-43-49-54-41-24-100-15-128 25-39 49-42 116-34 175 7 46 28 97 75 115 36 13 79-3 101-34 11-7 14-40 25-32 16 40 53 76 99 77 3 1 7 1 11 1z m-195-114c-29 2-48-28-48-54-1-24 6-55 31-64 23-6 43 13 50 33 10 19 16 40 23 60-15 14-35 26-56 25z m198 6c-25 3-42-19-50-40-11-22-18-45-27-67 22-27 62-44 94-25 35 23 41 74 22 109-8 13-22 24-39 23z"/>
<glyph unicode="&#108;" d="M322 268c42 2 76-36 84-75 10-42 9-88-8-129-14-31-48-53-82-48-28 3-50 26-59 52-9 14-12-20-23-23-27-27-76-30-103 0-32 36-35 88-29 133 5 33 21 71 56 80 29 10 61-8 75-34 5-8 8-25 13-8 12 26 35 48 64 51 4 1 8 1 12 1z m-138-83c-29 1-38-35-32-58 3-27 41-37 53-11 4 19 29 43 10 60-9 6-20 9-31 9z m141 6c-24 3-35-24-41-43-10-16-18-41 5-49 21-14 55-8 65 17 12 23 9 59-16 73-4 2-8 2-13 2z m84 245c-102 0-204 0-306 0 0 20 0 41 0 62 102 0 204 0 306 0 0-21 0-42 0-62z m0-122c-102 0-204 0-306 0 0 21 0 41 0 62 102 0 204 0 306 0 0-21 0-41 0-62z"/>
<glyph unicode="&#109;" d="M51 27c-2 15 1 35 22 35 17 59 34 118 51 177-13 3-43-3-38 18 1 8 21 9 4 14-13 5-32 23-10 30 16 10 31 19 47 29-21 15-31 38-34 61-11 8-8 25-12 36-1 10-12 41 5 21 7-7 17-22 21-5 3 12 12 14 17 2 5-7 11-21 18-6 10 7 7 33 26 20-1-11 7-23 18-27 8 4 14 28 23 22 6-8 9-31 18-12 7 9 19 20 14 4-5-19-7-39-15-57-3-22-13-44-32-59 9-8 25-15 36-23 9-6 27-11 18-24-8-9-38-15-15-22 12-19-17-23-31-21-15 0 4-22 2-31 15-49 29-99 45-147 20 1 26-18 23-33-12-6-35-1-51-3-57 0-113 0-170 0l0 1z m1 9c-4 14 7 25 21 26 17 58 34 116 50 174-2 12-36-4-38 16-4 12 25 13 4 20-15 5-29 24-6 30 14 9 29 18 44 28-20 14-30 37-33 60-13 12-10 34-15 50-2 8-6 23 5 10 8-9 19-24 24-5 8 21 18-7 26-14 14 6 13 24 23 31 19 2 6-19 21-25 12-16 18 14 28 19 8-8 11-34 23-13 5 6 17 20 11 3-4-20-7-40-15-59-3-22-14-43-32-57 18-13 38-23 56-36 3-15-17-19-27-27 16-1 20-28-3-26-15 1-31 1-19-16 15-55 32-109 48-163 20 0 26-17 23-32 2-7-10-2-14-4-69 0-137 0-206 0 0 4 1 7 1 10z m0 0c-4 14 6 25 21 26 17 59 35 118 51 177-12 4-45-2-37 20 5 6 17 7 4 12-9 6-26 12-19 25 18 11 37 22 55 34-19 14-30 36-32 58-10 11-10 26-14 41 0 7-11 37 3 20 8-8 19-25 24-5 8 25 18-11 28-13 12 8 12 23 21 31 19 2 5-21 22-26 12-16 18 22 29 19 6-7 9-32 18-15 5 5 20 25 14 6-4-20-7-40-15-59-3-22-14-43-32-57 10-8 25-15 37-23 10-6 29-15 13-26-6-7-33-14-12-19 16-16-13-25-27-21-19 0 2-25 1-35 14-48 28-97 43-145 19 1 26-15 23-29 3-9-8-5-13-6-69 0-138 0-207 0 0 4 1 7 1 10z m0-8c-2 14 0 34 20 33 7 13 9 29 14 44 12 44 26 89 38 134-11 5-44-3-37 20 6 6 18 8 3 13-11 4-30 20-13 27 17 10 34 20 50 31-20 14-30 37-32 60-11 7-9 22-12 34-1 9-8 25-5 31 10-7 23-34 30-11 9 25 18-12 28-13 12 8 12 23 21 31 19 1 6-21 22-26 12-18 20 29 30 16 5-8 9-28 18-11 5 5 18 22 13 5-5-20-7-40-15-58-3-23-14-44-33-58 19-13 39-23 57-36 3-15-21-19-27-28 20-1 15-28-4-25-11-1-31 3-20-12 17-56 33-112 50-167 18 0 26-15 23-30 3-9-8-5-13-6-69 0-138 0-206 0 0 1 0 2 0 2z m0 1c-3 15 3 32 22 33 17 59 34 117 50 176-10 5-50 0-35 24 25 9-27 14-18 32 18 13 39 23 56 36-18 14-29 35-32 56-9 12-10 28-14 44 0 8-10 35 4 18 9-12 20-20 25-1 8 17 16-12 25-17 6 8 18 15 16 26 5 14 23 1 17-9 7-8 18-26 25-8 5 8 14 24 19 8 3-9 8-20 15-7 4 4 18 23 13 7-4-21-8-42-16-61-2-22-14-42-32-56 18-12 38-23 56-35 5-16-21-20-26-29 20-1 15-29-5-25-11 0-30 3-19-13 16-55 33-111 50-167 19 1 26-15 23-30 3-8-8-4-13-5-69 0-138 0-206 0 0 1 0 2 0 3z m0 7c-4 15 9 24 22 27 17 58 34 116 51 175-9 8-41-4-39 17 2 10 23 11 4 17-18 5-27 25-5 31 14 9 29 17 43 27-20 14-30 37-33 59-11 11-10 28-14 42 0 9-10 35 5 16 7-8 18-22 22-4 7 23 18-6 26-13 7 7 19 16 18 27 8 13 20-1 16-10 7-11 20-25 27-6 7 16 15 15 20-1 4-23 25 25 25 9-5-20-7-42-16-61-3-22-13-44-32-58 10-8 25-15 37-23 16-5 29-23 7-31-9-5-22-10-5-14 14-15-12-25-26-21-21 3-1-21-2-32 15-49 29-99 45-148 21 3 29-25 19-35-71 0-143 0-215 0 0 4 0 7 0 10z m0 0c-3 14 7 25 22 26 17 59 35 118 51 177-12 5-45-2-37 20 5 6 19 7 4 13-9 4-30 16-17 25 18 11 37 21 53 33-20 14-30 37-33 59-10 10-9 27-13 41 0 7-11 35 3 17 9-11 20-20 25-2 6 18 14-5 21-12 8-7 19 13 21 21 0 16 23 5 15-7 8-10 21-26 28-6 5 8 13 22 16 5 4-9 9-20 16-6 6 6 18 22 12 5-4-19-7-39-15-57-3-22-13-44-33-58 19-13 38-23 57-35 4-16-19-20-28-28 19-2 19-28-2-25-14 1-31 0-20-17 16-54 33-108 49-162 14-3 28-12 23-29 3-9-4-8-11-8-69 0-138 0-207 0 0 3 0 7 0 10z m422 379c4-10 3-24-9-29-13-5-28-7-42-11-7-2-14-3-21-5 14-18 29-35 44-53 9-11-6-21-14-27-8-6-21-12-28 0-12 18-23 37-35 56-13-20-24-40-38-59-7-11-20-1-27 4-10 6-19 18-10 28 14 18 29 34 43 51-23 5-45 10-67 16-13 3-9 18-6 27 2 9 8 24 20 20 18-4 34-13 50-19 7-3 18-12 14 0-1 20-4 40-4 60-1 12 10 18 20 17 11 0 25-1 28-13 3-13 0-26 0-38-1-11-2-21-3-32 21 9 42 18 64 26 13 4 18-10 21-19z"/>
<glyph unicode="&#110;" d="M468 210c0-1 0-1 0-2-12-51-38-92-77-124-38-32-84-47-136-47-28 0-55 5-81 15-26 11-49 26-69 45l-37-37c-4-3-8-5-13-5-5 0-9 2-13 5-4 4-5 8-5 13l0 128c0 5 1 9 5 13 4 4 8 5 13 5l128 0c5 0 9-1 13-5 3-4 5-8 5-13 0-5-2-9-5-13l-39-39c13-12 28-22 46-29 17-7 35-10 53-10 26 0 49 6 71 18 23 13 40 30 54 51 2 4 7 15 15 34 1 4 4 6 8 6l55 0c3 0 5 0 7-2 1-2 2-4 2-7z m7 229l0-128c0-5-1-9-5-13-4-4-8-5-13-5l-128 0c-5 0-9 1-13 5-3 4-5 8-5 13 0 5 2 9 5 13l40 39c-28 26-62 39-100 39-26 0-49-6-71-18-23-13-40-30-54-51-2-4-7-15-15-34-1-4-4-6-8-6l-57 0c-3 0-5 0-7 2-1 2-2 4-2 7l0 2c12 51 38 92 77 124 39 32 85 47 137 47 28 0 55-5 81-15 26-11 50-26 70-45l37 37c4 3 8 5 13 5 5 0 9-2 13-5 4-4 5-8 5-13z"/>
<glyph unicode="&#111;" d="M499 472c4 3 7 5 9 3 3-1 4-4 4-9l0-420c0-5-1-8-4-9-2-2-5 0-9 3l-203 203c-1 2-3 4-3 6l0-203c0-5-2-8-4-9-3-2-6 0-9 3l-203 203c-2 2-3 4-4 6l0-194c0-5-2-9-5-13-4-4-8-5-13-5l-37 0c-5 0-9 1-13 5-3 4-5 8-5 13l0 402c0 5 2 9 5 13 4 4 8 5 13 5l37 0c5 0 9-1 13-5 3-4 5-8 5-13l0-194c1 3 2 4 4 6l203 203c3 3 6 5 9 3 2-1 4-4 4-9l0-203c0 3 2 4 3 6z"/>
<glyph unicode="&#112;" d="M13 40c-4-3-7-5-9-3-3 1-4 4-4 9l0 420c0 5 1 8 4 9 2 2 5 0 9-3l203-203c1-2 2-3 3-6l0 203c0 5 2 8 4 9 3 2 6 0 9-3l203-203c2-2 3-3 4-6l0 194c0 5 2 9 5 13 4 4 8 5 13 5l37 0c5 0 9-1 13-5 3-4 5-8 5-13l0-402c0-5-2-9-5-13-4-4-8-5-13-5l-37 0c-5 0-9 1-13 5-3 4-5 8-5 13l0 194c-1-2-2-4-4-6l-203-203c-3-3-6-5-9-3-2 1-4 4-4 9l0 203c-1-2-2-4-3-6z"/>
<glyph unicode="&#115;" d="M389 472c4 3 7 5 10 3 2-1 3-4 3-9l0-420c0-5-1-8-3-9-3-2-6 0-10 3l-202 203c-2 2-3 4-4 6l0-194c0-5-2-9-6-13-3-4-7-5-12-5l-37 0c-5 0-9 1-13 5-3 4-5 8-5 13l0 402c0 5 2 9 5 13 4 4 8 5 13 5l37 0c5 0 9-1 12-5 4-4 6-8 6-13l0-194c1 3 2 4 4 6z"/>
<glyph unicode="&#113;" d="M475 256c0-30-5-58-17-85-12-27-27-51-47-70-19-20-43-35-70-47-27-12-55-17-85-17-33 0-64 6-93 20-30 14-55 34-76 59-1 2-2 4-2 6 0 3 1 4 3 6l39 39c2 2 4 3 7 3 3 0 5-2 7-3 13-19 31-33 51-42 20-10 41-15 64-15 20 0 39 4 57 11 18 8 33 18 46 32 14 13 24 28 32 46 7 18 11 37 11 57 0 20-4 39-11 57-8 18-18 33-32 46-13 14-28 24-46 32-18 7-37 11-57 11-19 0-37-3-54-10-17-7-32-16-45-29l39-39c6-6 7-13 4-20-4-8-9-11-17-11l-128 0c-5 0-9 1-13 5-4 4-5 8-5 13l0 128c0 8 3 13 11 17 7 3 14 2 20-4l37-37c20 19 44 34 70 45 26 10 53 15 81 15 30 0 58-5 85-17 27-12 51-27 70-47 20-19 35-43 47-70 12-27 17-55 17-85z"/>
<glyph unicode="&#116;" d="M146 73l220 0 0 110-220 0z m256 0l37 0 0 256c0 3-1 6-3 11-2 5-4 8-6 10l-80 80c-2 2-5 4-10 6-4 2-8 3-11 3l0-119c0-8-3-14-8-19-5-6-12-8-19-8l-165 0c-7 0-14 2-19 8-6 5-8 11-8 19l0 119-37 0 0-366 37 0 0 119c0 8 2 14 8 19 5 6 12 8 19 8l238 0c7 0 14-2 19-8 6-5 8-11 8-19z m-109 265l0 92c0 2-1 4-3 6-2 2-4 3-7 3l-54 0c-3 0-5-1-7-3-2-2-3-4-3-6l0-92c0-2 1-4 3-6 2-2 4-3 7-3l54 0c3 0 5 1 7 3 2 2 3 4 3 6z m182-9l0-265c0-8-2-14-8-19-5-6-11-8-19-8l-384 0c-8 0-14 2-19 8-6 5-8 11-8 19l0 384c0 8 2 14 8 19 5 6 11 8 19 8l265 0c8 0 16-1 25-5 9-4 17-9 22-14l80-80c5-5 10-13 14-22 4-9 5-17 5-25z"/>
<glyph unicode="&#117;" d="M239 256c0 19-7 35-20 48-13 14-29 20-48 20-19 0-35-6-49-20-13-13-20-29-20-48 0-19 7-35 20-48 14-14 30-20 49-20 19 0 35 6 48 20 13 13 20 29 20 48z m205-137c0 10-4 18-10 24-7 7-15 11-24 11-10 0-18-4-24-11-7-6-11-14-11-24 0-9 4-17 10-24 7-6 15-10 25-10 9 0 17 4 24 10 6 7 10 15 10 24z m0 274c0 9-4 17-10 24-7 6-15 10-24 10-10 0-18-4-24-10-7-7-11-15-11-24 0-10 4-18 10-25 7-6 15-10 25-10 9 0 17 4 24 10 6 7 10 15 10 25z m-103-113l0-49c0-2 0-4-2-5-1-2-2-3-4-3l-41-6c-2-7-5-13-9-21 6-8 14-18 24-30 2-2 2-4 2-6 0-2 0-4-2-5-4-5-11-13-22-24-10-10-17-16-21-16-2 0-3 1-5 2l-31 24c-6-3-13-6-20-8-2-19-4-33-7-41-1-5-3-7-8-7l-49 0c-2 0-4 1-5 2-2 2-3 3-3 5l-6 41c-6 2-13 4-20 8l-32-24c-1-1-3-2-5-2-2 0-4 1-6 3-25 23-38 37-38 42 0 2 1 4 2 5 2 3 5 8 11 14 5 7 9 13 12 17-4 8-7 15-9 22l-41 6c-1 0-3 1-4 3-1 1-2 3-2 5l0 49c0 2 1 4 2 5 1 2 3 3 4 3l41 6c2 7 5 13 9 21-6 8-14 18-24 30-1 2-2 4-2 6 0 2 1 4 2 5 4 5 11 13 22 24 11 10 18 16 21 16 2 0 4-1 6-2l30-24c6 3 13 6 21 8 2 19 4 33 6 41 1 5 4 7 8 7l49 0c2 0 4-1 6-2 1-2 2-3 2-5l7-41c6-2 12-4 20-8l31 24c1 1 3 2 5 2 2 0 4-1 6-3 26-23 38-37 38-42 0-2 0-4-1-5-3-3-6-8-12-15-5-6-9-12-12-16 4-8 7-16 9-22l41-6c2 0 3-1 4-3 2-1 2-3 2-5z m171-142l0-37c0-3-13-6-40-8-2-5-5-10-8-14 9-20 14-33 14-37 0-1 0-1-1-2-22-13-33-19-33-19-2 0-6 4-13 13-6 8-11 14-13 18-4-1-7-1-8-1-2 0-5 0-8 1-3-4-8-10-14-18-7-9-11-13-13-13 0 0-11 6-33 19 0 1-1 1-1 2 0 4 5 17 14 37-3 4-6 9-8 14-27 2-40 5-40 8l0 37c0 3 13 6 40 8 2 6 5 10 8 14-9 20-14 33-14 37 0 1 1 1 1 2 1 0 4 2 10 5 5 3 10 6 15 9 5 3 8 5 8 5 2 0 6-5 13-13 6-8 11-14 14-18 3 1 6 1 8 1 1 0 4 0 8-1 9 13 17 23 24 30l2 1c0 0 11-7 33-19 1-1 1-1 1-2 0-4-5-17-14-37 3-4 6-8 8-14 27-2 40-5 40-8z m0 273l0-37c0-3-13-6-40-8-2-5-5-10-8-14 9-20 14-33 14-37 0-1 0-1-1-2-22-13-33-19-33-19-2 0-6 4-13 13-6 8-11 14-13 18-4-1-7-1-8-1-2 0-5 0-8 1-3-4-8-10-14-18-7-9-11-13-13-13 0 0-11 6-33 19 0 1-1 1-1 2 0 4 5 17 14 37-3 4-6 9-8 14-27 2-40 5-40 8l0 37c0 3 13 6 40 8 2 6 5 10 8 14-9 20-14 33-14 37 0 1 1 1 1 2 1 0 4 2 10 5 5 4 10 7 15 9 5 3 8 5 8 5 2 0 6-4 13-13 6-8 11-14 14-18 3 1 6 1 8 1 1 0 4 0 8-1 9 13 17 23 24 30l2 1c0 0 11-7 33-19 1-1 1-1 1-2 0-4-5-17-14-37 3-4 6-8 8-14 27-2 40-5 40-8z"/>
<glyph unicode="&#118;" d="M201 302l0-165c0-3-1-5-2-6-2-2-4-3-7-3l-18 0c-3 0-5 1-7 3-2 1-2 3-2 6l0 165c0 2 0 5 2 6 2 2 4 3 7 3l18 0c3 0 5-1 7-3 1-1 2-4 2-6z m73 0l0-165c0-3-1-5-2-6-2-2-4-3-7-3l-18 0c-3 0-5 1-7 3-1 1-2 3-2 6l0 165c0 2 1 5 2 6 2 2 4 3 7 3l18 0c3 0 5-1 7-3 1-1 2-4 2-6z m73 0l0-165c0-3 0-5-2-6-2-2-4-3-7-3l-18 0c-3 0-5 1-7 3-1 1-2 3-2 6l0 165c0 2 1 5 2 6 2 2 4 3 7 3l18 0c3 0 5-1 7-3 2-1 2-4 2-6z m37-207l0 271-256 0 0-271c0-4 1-8 2-12 1-3 3-6 4-7 2-2 3-3 3-3l238 0c0 0 1 1 3 3 1 1 3 4 4 7 1 4 2 8 2 12z m-192 307l128 0-14 34c-1 1-3 2-5 3l-90 0c-2-1-4-2-5-3z m265-9l0-18c0-3-1-5-2-7-2-1-4-2-7-2l-27 0 0-271c0-16-5-30-14-41-9-12-20-17-32-17l-238 0c-12 0-23 5-32 16-9 11-14 25-14 41l0 272-27 0c-3 0-5 1-7 2-1 2-2 4-2 7l0 18c0 3 1 5 2 7 2 1 4 2 7 2l88 0 20 48c3 7 8 13 16 18 7 5 15 7 22 7l92 0c7 0 15-2 22-7 8-5 13-11 16-18l20-48 88 0c3 0 5-1 7-2 1-2 2-4 2-7z"/>
<glyph unicode="&#119;" d="M475 247c0 6-5 9-14 9l-290 0c-7 0-15-2-23-6-8-4-15-8-19-14l-79-97c-3-4-4-7-4-10 0-6 4-10 14-10l290 0c7 0 15 2 23 6 8 4 14 9 19 14l78 97c3 4 5 8 5 11z m-304 43l204 0 0 43c0 7-2 13-7 18-5 5-11 7-18 7l-154 0c-7 0-13 3-18 8-5 5-7 11-7 18l0 17c0 7-3 13-8 18-5 5-11 8-18 8l-85 0c-7 0-13-3-18-8-5-5-8-11-8-18l0-227 68 84c8 9 19 17 31 23 13 6 26 9 38 9z m338-43c0-11-4-22-12-32l-79-97c-8-10-18-17-31-23-13-7-25-10-37-10l-290 0c-17 0-31 6-42 18-12 12-18 26-18 42l0 256c0 16 6 30 18 42 11 12 25 18 42 18l85 0c16 0 30-6 42-18 12-12 18-26 18-42l0-8 145 0c16 0 30-6 42-18 12-12 18-26 18-42l0-43 51 0c9 0 18-2 26-6 8-5 14-11 18-19 3-6 4-12 4-18z"/>
<glyph unicode="&#114;" d="M123 40c-4-3-7-5-10-3-2 1-3 4-3 9l0 420c0 5 1 8 3 9 3 2 6 0 10-3l202-203c2-2 3-3 4-6l0 194c0 5 2 9 6 13 3 4 7 5 12 5l37 0c5 0 9-1 13-5 3-4 5-8 5-13l0-402c0-5-2-9-5-13-4-4-8-5-13-5l-37 0c-5 0-9 1-12 5-4 4-6 8-6 13l0 194c-1-2-2-4-4-6z"/>
</font>
</defs>
</svg>
